<svg width="500" height="500" viewBox="0 0 500 500" fill="none" xmlns="http://www.w3.org/2000/svg">
<path d="M73.8467 408.838L8.82174 306.838C5.00234 300.847 9.30568 293 16.4108 293H480.908C488.517 293 492.693 301.857 487.85 307.727L403.7 409.727C401.99 411.8 399.444 413 396.758 413H81.4358C78.3613 413 75.4995 411.431 73.8467 408.838Z" fill="#FFE4DF"/>
<path d="M193 21.3605V276C193 280.971 197.029 285 202 285H462.894C470.965 285 474.956 275.197 469.18 269.559L208.286 14.9198C202.586 9.35605 193 13.3949 193 21.3605Z" fill="#FE5B5C"/>
<path d="M185 33.294V281C185 283.209 183.209 285 181 285H67.2387C64.3228 285 62.3868 281.98 63.6037 279.331L177.365 31.6246C179.157 27.7231 185 29.0008 185 33.294Z" fill="#FE5B5C"/>
<rect x="177" y="29" width="8" height="256" rx="4" fill="#8F4F4B"/>
<path fill-rule="evenodd" clip-rule="evenodd" d="M40.8 357L73.8467 408.838C75.4995 411.431 78.3612 413 81.4358 413H396.758C399.444 413 401.99 411.8 403.7 409.727L447.2 357H40.8Z" fill="#00679D"/>
</svg>
