<svg width="128" height="26" viewBox="0 0 128 26" fill="none" xmlns="http://www.w3.org/2000/svg">
<path d="M3.27246 8.10742C1.76855 8.10742 0.850586 6.96484 0.850586 5.37305C0.850586 3.76172 1.80762 2.62891 3.25293 2.62891C4.38574 2.62891 5.22559 3.29297 5.3623 4.29883H4.52246C4.40527 3.81055 3.97559 3.37109 3.27246 3.37109C2.3252 3.37109 1.69043 4.15234 1.69043 5.34375C1.69043 6.57422 2.30566 7.35547 3.27246 7.35547C3.89746 7.35547 4.37598 7.02344 4.52246 6.4375H5.3623C5.22559 7.38477 4.4541 8.10742 3.27246 8.10742ZM7.2373 0.929688V8H6.39746V0.929688H7.2373ZM8.5752 8V2.69727H9.41504V8H8.5752ZM8.99512 1.81836C8.67285 1.81836 8.40918 1.57422 8.40918 1.26172C8.40918 0.949219 8.67285 0.705078 8.99512 0.705078C9.31738 0.705078 9.59082 0.949219 9.59082 1.26172C9.59082 1.57422 9.31738 1.81836 8.99512 1.81836ZM12.9795 8.10742C11.4463 8.10742 10.499 7.02344 10.499 5.39258C10.499 3.76172 11.4561 2.62891 12.9014 2.62891C14.0146 2.62891 15.1865 3.3125 15.1865 5.27539V5.62695H11.3389C11.3779 6.75 12.0322 7.36523 12.9795 7.36523C13.6143 7.36523 14.0146 7.0918 14.21 6.75977H15.1084C14.8545 7.56055 14.0732 8.10742 12.9795 8.10742ZM11.3486 4.91406H14.3369C14.3369 4.02539 13.7705 3.37109 12.9014 3.37109C11.9834 3.37109 11.3975 4.09375 11.3486 4.91406ZM17.1201 4.81641V8H16.2803V2.69727H17.0908V3.52734H17.1592C17.4131 2.99023 17.9014 2.62891 18.7119 2.62891C19.7861 2.62891 20.499 3.2832 20.499 4.63086V8H19.6592V4.68945C19.6592 3.86914 19.21 3.38086 18.458 3.38086C17.6865 3.38086 17.1201 3.89844 17.1201 4.81641ZM24.1611 2.69727V3.40039H23.0479V6.47656C23.0479 7.16016 23.3799 7.26758 23.7412 7.26758C23.8975 7.26758 24.1123 7.25781 24.2393 7.24805V8.0293C24.1123 8.04883 23.8975 8.06836 23.6533 8.06836C22.9502 8.06836 22.1982 7.62891 22.1982 6.69141V3.40039H21.3975V2.69727H22.1982V1.42773H23.0479V2.69727H24.1611Z" fill="#F2F2F7"/>
<path d="M44.9883 4.07422C44.8711 3.63477 44.5391 3.3418 43.9141 3.3418C43.2598 3.3418 42.791 3.69336 42.791 4.14258C42.791 4.49414 43.0742 4.73828 43.6992 4.88477L44.4902 5.08008C45.4375 5.30469 45.9062 5.77344 45.9062 6.51562C45.9062 7.43359 45.1543 8.10742 43.8262 8.10742C42.6348 8.10742 41.9219 7.58008 41.7852 6.61328H42.6641C42.7617 7.13086 43.1426 7.375 43.8066 7.375C44.5586 7.375 45.0371 7.0625 45.0371 6.56445C45.0371 6.19336 44.7734 5.93945 44.168 5.80273L43.3672 5.61719C42.4395 5.40234 41.9512 4.89453 41.9512 4.19141C41.9512 3.2832 42.7422 2.62891 43.9141 2.62891C45.0078 2.62891 45.7012 3.21484 45.8086 4.07422H44.9883ZM49.2266 8.10742C47.6934 8.10742 46.7461 7.02344 46.7461 5.39258C46.7461 3.76172 47.7031 2.62891 49.1484 2.62891C50.2617 2.62891 51.4336 3.3125 51.4336 5.27539V5.62695H47.5859C47.625 6.75 48.2793 7.36523 49.2266 7.36523C49.8613 7.36523 50.2617 7.0918 50.457 6.75977H51.3555C51.1016 7.56055 50.3203 8.10742 49.2266 8.10742ZM47.5957 4.91406H50.584C50.584 4.02539 50.0176 3.37109 49.1484 3.37109C48.2305 3.37109 47.6445 4.09375 47.5957 4.91406ZM52.5273 8V2.69727H53.3379V3.50781H53.3965C53.5918 2.9707 54.1387 2.60938 54.7637 2.60938C54.8906 2.60938 55.1055 2.61914 55.2031 2.62891V3.47852C55.1445 3.45898 54.9102 3.41992 54.6953 3.41992C53.9336 3.41992 53.3672 3.94727 53.3672 4.66016V8H52.5273ZM60.5547 2.69727L58.5918 8H57.7227L55.7695 2.69727H56.6875L58.1328 6.90625H58.1914L59.6367 2.69727H60.5547ZM63.5137 8.10742C61.9805 8.10742 61.0332 7.02344 61.0332 5.39258C61.0332 3.76172 61.9902 2.62891 63.4355 2.62891C64.5488 2.62891 65.7207 3.3125 65.7207 5.27539V5.62695H61.873C61.9121 6.75 62.5664 7.36523 63.5137 7.36523C64.1484 7.36523 64.5488 7.0918 64.7441 6.75977H65.6426C65.3887 7.56055 64.6074 8.10742 63.5137 8.10742ZM61.8828 4.91406H64.8711C64.8711 4.02539 64.3047 3.37109 63.4355 3.37109C62.5176 3.37109 61.9316 4.09375 61.8828 4.91406ZM66.8145 8V2.69727H67.625V3.50781H67.6836C67.8789 2.9707 68.4258 2.60938 69.0508 2.60938C69.1777 2.60938 69.3926 2.61914 69.4902 2.62891V3.47852C69.4316 3.45898 69.1973 3.41992 68.9824 3.41992C68.2207 3.41992 67.6543 3.94727 67.6543 4.66016V8H66.8145Z" fill="#F2F2F7"/>
<path d="M88.7979 8.10742C87.4795 8.10742 86.542 7.04297 86.542 5.36328C86.542 3.68359 87.4795 2.62891 88.8076 2.62891C89.833 2.62891 90.165 3.25391 90.3408 3.53711H90.3994V0.929688H91.249V8H90.4287V7.18945H90.3408C90.1553 7.48242 89.8135 8.10742 88.7979 8.10742ZM88.915 7.35547C89.8818 7.35547 90.4287 6.53516 90.4287 5.34375C90.4287 4.17188 89.9014 3.38086 88.915 3.38086C87.8994 3.38086 87.3916 4.24023 87.3916 5.34375C87.3916 6.47656 87.9092 7.35547 88.915 7.35547ZM92.4502 6.49609C92.4502 5.27539 93.5244 5.00195 94.4424 4.93359C94.7793 4.90918 95.6387 4.86523 95.8779 4.85547V4.42578C95.8779 3.75195 95.4775 3.36133 94.6768 3.36133C94.0029 3.36133 93.6025 3.67383 93.4854 4.07422H92.6064C92.7139 3.22461 93.5439 2.62891 94.7158 2.62891C95.4092 2.62891 96.708 2.83398 96.708 4.50391V8H95.8779V7.27734H95.8389C95.6631 7.63867 95.1748 8.12695 94.2568 8.12695C93.251 8.12695 92.4502 7.53125 92.4502 6.49609ZM93.29 6.53516C93.29 7.0918 93.7588 7.375 94.4033 7.375C95.3506 7.375 95.8779 6.74023 95.8779 6.07617V5.53906L94.54 5.63672C93.7783 5.68555 93.29 5.95898 93.29 6.53516ZM100.37 2.69727V3.40039H99.2568V6.47656C99.2568 7.16016 99.5889 7.26758 99.9502 7.26758C100.106 7.26758 100.321 7.25781 100.448 7.24805V8.0293C100.321 8.04883 100.106 8.06836 99.8623 8.06836C99.1592 8.06836 98.4072 7.62891 98.4072 6.69141V3.40039H97.6064V2.69727H98.4072V1.42773H99.2568V2.69727H100.37ZM101.2 6.49609C101.2 5.27539 102.274 5.00195 103.192 4.93359C103.529 4.90918 104.389 4.86523 104.628 4.85547V4.42578C104.628 3.75195 104.228 3.36133 103.427 3.36133C102.753 3.36133 102.353 3.67383 102.235 4.07422H101.356C101.464 3.22461 102.294 2.62891 103.466 2.62891C104.159 2.62891 105.458 2.83398 105.458 4.50391V8H104.628V7.27734H104.589C104.413 7.63867 103.925 8.12695 103.007 8.12695C102.001 8.12695 101.2 7.53125 101.2 6.49609ZM102.04 6.53516C102.04 7.0918 102.509 7.375 103.153 7.375C104.101 7.375 104.628 6.74023 104.628 6.07617V5.53906L103.29 5.63672C102.528 5.68555 102.04 5.95898 102.04 6.53516ZM106.913 8V0.929688H107.753V3.53711H107.821C108.007 3.25391 108.319 2.62891 109.354 2.62891C110.683 2.62891 111.62 3.68359 111.62 5.36328C111.62 7.04297 110.683 8.10742 109.364 8.10742C108.349 8.10742 108.007 7.48242 107.821 7.18945H107.724V8H106.913ZM107.733 5.34375C107.733 6.53516 108.271 7.35547 109.237 7.35547C110.243 7.35547 110.771 6.47656 110.771 5.34375C110.771 4.24023 110.263 3.38086 109.237 3.38086C108.261 3.38086 107.733 4.17188 107.733 5.34375ZM112.46 6.49609C112.46 5.27539 113.534 5.00195 114.452 4.93359C114.789 4.90918 115.648 4.86523 115.888 4.85547V4.42578C115.888 3.75195 115.487 3.36133 114.687 3.36133C114.013 3.36133 113.612 3.67383 113.495 4.07422H112.616C112.724 3.22461 113.554 2.62891 114.726 2.62891C115.419 2.62891 116.718 2.83398 116.718 4.50391V8H115.888V7.27734H115.849C115.673 7.63867 115.185 8.12695 114.267 8.12695C113.261 8.12695 112.46 7.53125 112.46 6.49609ZM113.3 6.53516C113.3 7.0918 113.769 7.375 114.413 7.375C115.36 7.375 115.888 6.74023 115.888 6.07617V5.53906L114.55 5.63672C113.788 5.68555 113.3 5.95898 113.3 6.53516ZM121.015 4.07422C120.897 3.63477 120.565 3.3418 119.94 3.3418C119.286 3.3418 118.817 3.69336 118.817 4.14258C118.817 4.49414 119.101 4.73828 119.726 4.88477L120.517 5.08008C121.464 5.30469 121.933 5.77344 121.933 6.51562C121.933 7.43359 121.181 8.10742 119.853 8.10742C118.661 8.10742 117.948 7.58008 117.812 6.61328H118.69C118.788 7.13086 119.169 7.375 119.833 7.375C120.585 7.375 121.063 7.0625 121.063 6.56445C121.063 6.19336 120.8 5.93945 120.194 5.80273L119.394 5.61719C118.466 5.40234 117.978 4.89453 117.978 4.19141C117.978 3.2832 118.769 2.62891 119.94 2.62891C121.034 2.62891 121.728 3.21484 121.835 4.07422H121.015ZM125.253 8.10742C123.72 8.10742 122.772 7.02344 122.772 5.39258C122.772 3.76172 123.729 2.62891 125.175 2.62891C126.288 2.62891 127.46 3.3125 127.46 5.27539V5.62695H123.612C123.651 6.75 124.306 7.36523 125.253 7.36523C125.888 7.36523 126.288 7.0918 126.483 6.75977H127.382C127.128 7.56055 126.347 8.10742 125.253 8.10742ZM123.622 4.91406H126.61C126.61 4.02539 126.044 3.37109 125.175 3.37109C124.257 3.37109 123.671 4.09375 123.622 4.91406Z" fill="#F2F2F7"/>
<rect x="0.000976562" y="11" width="128" height="3" fill="#F2F2F7"/>
<path d="M69.6377 17.9297V25H68.749V18.8477H68.71L66.9912 19.9902V19.1016L68.749 17.9297H69.6377ZM71.5225 25L71.5127 24.3555L73.9248 21.8164C74.7646 20.9277 75.165 20.4492 75.165 19.7949C75.165 19.0723 74.5498 18.5938 73.7588 18.5938C72.9189 18.5938 72.3818 19.1309 72.3818 19.9219H71.5518C71.542 18.6719 72.5088 17.832 73.7881 17.832C75.0674 17.832 75.9854 18.6914 75.9854 19.7949C75.9854 20.5859 75.6143 21.2012 74.3643 22.4902L72.7432 24.1602V24.2188H76.1123V25H71.5225ZM79.7158 19.6973V20.4004H78.6025V23.4766C78.6025 24.1602 78.9346 24.2676 79.2959 24.2676C79.4521 24.2676 79.667 24.2578 79.7939 24.248V25.0293C79.667 25.0488 79.4521 25.0684 79.208 25.0684C78.5049 25.0684 77.7529 24.6289 77.7529 23.6914V20.4004H76.9521V19.6973H77.7529V18.4277H78.6025V19.6973H79.7158ZM81.7568 21.8164V25H80.917V17.9297H81.7568V20.5273H81.8252C82.0693 19.9805 82.5479 19.6289 83.3877 19.6289C84.4717 19.6289 85.1943 20.2734 85.1943 21.6309V25H84.3545V21.6895C84.3545 20.8594 83.8955 20.3809 83.1338 20.3809C82.3428 20.3809 81.7568 20.8984 81.7568 21.8164ZM91.8643 17.9297H92.7529V22.9785C92.7529 24.3359 91.9521 25.0977 90.7217 25.0977C89.5498 25.0977 88.7002 24.4238 88.7002 23.3301H89.5693C89.5693 23.9258 90.0576 24.3164 90.7217 24.3164C91.4541 24.3164 91.8643 23.8574 91.8643 22.9785V17.9297ZM97.5576 22.8223V19.6973H98.3877V25H97.5576V24.1016H97.499C97.2451 24.6387 96.7275 25.0684 95.9268 25.0684C94.9209 25.0684 94.208 24.4141 94.208 23.0664V19.6973H95.0479V23.0078C95.0479 23.7695 95.5264 24.2578 96.2002 24.2578C96.7959 24.2578 97.5576 23.8086 97.5576 22.8223ZM100.575 17.9297V25H99.7354V17.9297H100.575ZM104.413 25L104.403 24.3555L106.815 21.8164C107.655 20.9277 108.056 20.4492 108.056 19.7949C108.056 19.0723 107.44 18.5938 106.649 18.5938C105.81 18.5938 105.272 19.1309 105.272 19.9219H104.442C104.433 18.6719 105.399 17.832 106.679 17.832C107.958 17.832 108.876 18.6914 108.876 19.7949C108.876 20.5859 108.505 21.2012 107.255 22.4902L105.634 24.1602V24.2188H109.003V25H104.413ZM112.597 25.0977C111.024 25.0977 110.126 23.7793 110.126 21.4648C110.126 19.1699 111.044 17.832 112.597 17.832C114.149 17.832 115.067 19.1699 115.067 21.4648C115.067 23.7793 114.159 25.0977 112.597 25.0977ZM112.597 24.3164C113.612 24.3164 114.208 23.291 114.208 21.4648C114.208 19.6387 113.612 18.5938 112.597 18.5938C111.581 18.5938 110.976 19.6387 110.976 21.4648C110.976 23.291 111.571 24.3164 112.597 24.3164ZM116.239 25L116.229 24.3555L118.642 21.8164C119.481 20.9277 119.882 20.4492 119.882 19.7949C119.882 19.0723 119.267 18.5938 118.476 18.5938C117.636 18.5938 117.099 19.1309 117.099 19.9219H116.269C116.259 18.6719 117.226 17.832 118.505 17.832C119.784 17.832 120.702 18.6914 120.702 19.7949C120.702 20.5859 120.331 21.2012 119.081 22.4902L117.46 24.1602V24.2188H120.829V25H116.239ZM121.776 23.5547V22.832L124.96 17.9297H126.044V22.7832H127.03V23.5547H126.044V25H125.204V23.5547H121.776ZM122.724 22.7832H125.204V19.043H125.116L122.724 22.7246V22.7832Z" fill="#F2F2F7"/>
</svg>
